<svg width="50" height="50" viewBox="0 0 50 50" fill="none" xmlns="http://www.w3.org/2000/svg">
<rect width="50" height="50" rx="10.097" fill="#1E6069"/>
<g clip-path="url(#clip0_1006_9078)">
<path d="M16.8664 26.6808H11.1581C10.7046 26.6808 10.2697 26.5016 9.94899 26.1826C9.62832 25.8636 9.44816 25.431 9.44816 24.9799C9.44816 24.5288 9.62832 24.0961 9.94899 23.7772C10.2697 23.4582 10.7046 23.279 11.1581 23.279H15.9502L17.7242 20.634C17.8802 20.4001 18.0919 20.2082 18.3406 20.0755C18.5892 19.9428 18.867 19.8733 19.1492 19.8733C19.4313 19.8733 19.7091 19.9428 19.9577 20.0755C20.2064 20.2082 20.4181 20.4001 20.5741 20.634L23.709 25.3116L24.5639 24.0359C24.7203 23.8027 24.9323 23.6115 25.1809 23.4795C25.4295 23.3474 25.707 23.2785 25.9889 23.279H29.4087C29.8622 23.279 30.2971 23.4582 30.6178 23.7772C30.9385 24.0961 31.1186 24.5288 31.1186 24.9799C31.1186 25.431 30.9385 25.8636 30.6178 26.1826C30.2971 26.5016 29.8622 26.6808 29.4087 26.6808H26.9008L25.1254 29.3258C24.9694 29.5597 24.7576 29.7515 24.509 29.8843C24.2604 30.017 23.9826 30.0865 23.7004 30.0865C23.4182 30.0865 23.1405 30.017 22.8918 29.8843C22.6432 29.7515 22.4314 29.5597 22.2755 29.3258L19.1406 24.6482L18.2856 25.9239C18.1298 26.1563 17.9187 26.3469 17.6712 26.479C17.4237 26.611 17.1473 26.6803 16.8664 26.6808ZM31.9921 10.8055C29.1252 10.8055 26.5774 11.9295 24.8575 13.8615C23.1333 11.9295 20.5898 10.8055 17.7214 10.8055C15.4053 10.8021 13.1695 11.6489 11.4422 13.1837C9.71498 14.7186 8.6178 16.8334 8.36094 19.123C8.31105 19.5728 8.44284 20.0239 8.7273 20.3771C9.01176 20.7302 9.42561 20.9565 9.87778 21.0061C10.33 21.0557 10.7834 20.9246 11.1384 20.6417C11.4935 20.3587 11.7209 19.947 11.7708 19.4972C11.9349 18.0418 12.6325 16.6976 13.7303 15.7217C14.8281 14.7457 16.2491 14.2066 17.7214 14.2073C20.262 14.2073 22.388 15.5397 23.2715 17.6857C23.3992 17.9999 23.6183 18.269 23.9008 18.4584C24.1832 18.6479 24.5161 18.7491 24.8568 18.7491C25.1974 18.7491 25.5303 18.6479 25.8127 18.4584C26.0952 18.269 26.3143 17.9999 26.442 17.6857C27.3255 15.5397 29.4515 14.2073 31.9921 14.2073C33.5807 14.207 35.1045 14.8337 36.2289 15.9498C37.3534 17.066 37.9867 18.5804 37.9897 20.1606C37.9897 24.3307 34.3048 28.3491 31.2127 30.9842C29.2249 32.6601 27.1001 34.1683 24.8603 35.493C23.3114 34.5788 19.8203 32.3747 16.808 29.4363C16.6478 29.2796 16.4582 29.1558 16.2499 29.072C16.0416 28.9881 15.8187 28.9459 15.5941 28.9478C15.3694 28.9496 15.1473 28.9955 14.9404 29.0827C14.7336 29.1699 14.546 29.2968 14.3884 29.4562C14.2309 29.6155 14.1064 29.8042 14.0221 30.0113C13.9379 30.2185 13.8954 30.4402 13.8973 30.6637C13.901 31.115 14.0849 31.5464 14.4084 31.863C18.7388 36.0884 23.8344 38.8368 24.0495 38.9502C24.2991 39.0832 24.5779 39.1528 24.861 39.1528C25.1442 39.1528 25.4229 39.0832 25.6725 38.9502C26.3052 38.6072 41.4096 30.4144 41.4096 20.1606C41.405 17.6786 40.411 15.2998 38.6455 13.546C36.88 11.7922 34.4872 10.8066 31.9921 10.8055Z" fill="white"/>
</g>
<defs>
<clipPath id="clip0_1006_9078">
<rect width="33.3064" height="28.924" fill="white" transform="translate(8.22705 10.5178)"/>
</clipPath>
</defs>
</svg>
