<svg width="37" height="37" viewBox="0 0 37 37" fill="none" xmlns="http://www.w3.org/2000/svg">
<rect width="36.0973" height="36.0973" rx="10.097" fill="#1E6069"/>
<g clip-path="url(#clip0_2288_8329)">
<path d="M12.1763 19.2619H8.05519C7.72779 19.2619 7.41379 19.1326 7.18228 18.9023C6.95077 18.672 6.82071 18.3596 6.82071 18.0339C6.82071 17.7083 6.95077 17.3959 7.18228 17.1656C7.41379 16.9353 7.72779 16.806 8.05519 16.806H11.5148L12.7956 14.8965C12.9082 14.7276 13.0611 14.5891 13.2406 14.4932C13.42 14.3974 13.6206 14.3473 13.8243 14.3473C14.028 14.3473 14.2286 14.3974 14.4081 14.4932C14.5876 14.5891 14.7404 14.7276 14.853 14.8965L17.1162 18.2734L17.7335 17.3524C17.8464 17.1841 17.9994 17.0461 18.1789 16.9507C18.3584 16.8554 18.5588 16.8057 18.7622 16.806H21.2312C21.5586 16.806 21.8726 16.9353 22.1041 17.1656C22.3356 17.3959 22.4656 17.7083 22.4656 18.0339C22.4656 18.3596 22.3356 18.672 22.1041 18.9023C21.8726 19.1326 21.5586 19.2619 21.2312 19.2619H19.4206L18.1388 21.1714C18.0262 21.3403 17.8733 21.4788 17.6938 21.5747C17.5143 21.6705 17.3138 21.7206 17.1101 21.7206C16.9064 21.7206 16.7058 21.6705 16.5263 21.5747C16.3468 21.4788 16.194 21.3403 16.0813 21.1714L13.8181 17.7945L13.2009 18.7155C13.0884 18.8833 12.936 19.0209 12.7573 19.1162C12.5786 19.2115 12.3791 19.2616 12.1763 19.2619ZM23.0963 7.80079C21.0265 7.80079 19.1871 8.61228 17.9454 10.0071C16.7006 8.61228 14.8644 7.80079 12.7935 7.80079C11.1215 7.79834 9.5073 8.40971 8.26032 9.51776C7.01334 10.6258 6.22124 12.1526 6.03579 13.8056C5.99978 14.1303 6.09492 14.456 6.30029 14.7109C6.50566 14.9659 6.80443 15.1293 7.13088 15.1651C7.45732 15.2009 7.78471 15.1063 8.04101 14.902C8.29731 14.6977 8.46153 14.4005 8.49754 14.0758C8.61598 13.025 9.11964 12.0546 9.9122 11.35C10.7048 10.6454 11.7306 10.2562 12.7935 10.2567C14.6277 10.2567 16.1626 11.2187 16.8004 12.768C16.8926 12.9948 17.0508 13.189 17.2547 13.3258C17.4586 13.4626 17.699 13.5356 17.9449 13.5356C18.1908 13.5356 18.4312 13.4626 18.6351 13.3258C18.839 13.189 18.9972 12.9948 19.0894 12.768C19.7272 11.2187 21.262 10.2567 23.0963 10.2567C24.2431 10.2565 25.3432 10.7089 26.155 11.5147C26.9668 12.3205 27.424 13.4139 27.4262 14.5547C27.4262 17.5653 24.7659 20.4664 22.5335 22.3687C21.0984 23.5787 19.5644 24.6675 17.9475 25.6239C16.8292 24.9638 14.3088 23.3726 12.1341 21.2513C12.0185 21.1381 11.8816 21.0487 11.7312 20.9882C11.5808 20.9277 11.4199 20.8972 11.2577 20.8986C11.0955 20.8999 10.9352 20.933 10.7858 20.996C10.6365 21.0589 10.5011 21.1505 10.3873 21.2656C10.2736 21.3806 10.1837 21.5168 10.1229 21.6664C10.062 21.816 10.0314 21.976 10.0328 22.1373C10.0355 22.4632 10.1682 22.7747 10.4017 23.0032C13.528 26.0537 17.2068 28.0379 17.3621 28.1198C17.5423 28.2158 17.7436 28.266 17.948 28.266C18.1524 28.266 18.3536 28.2158 18.5338 28.1198C18.9906 27.8721 29.8951 21.9573 29.8951 14.5547C29.8919 12.7628 29.1742 11.0455 27.8996 9.77929C26.625 8.51313 24.8976 7.8016 23.0963 7.80079Z" fill="white"/>
</g>
<defs>
<clipPath id="clip0_2288_8329">
<rect width="24.0455" height="20.8816" fill="white" transform="translate(5.93945 7.59326)"/>
</clipPath>
</defs>
</svg>
